<svg xmlns="http://www.w3.org/2000/svg" width="280" height="280" viewBox="10 10 280 280">
  <defs>
    <style>
      .cls-1 {
        fill: #fff;
        fill-rule: evenodd;
      }
    </style>
  </defs>
  <path id="Preenchimento_de_Cor_1" data-name="Preenchimento de Cor 1" class="cls-1" d="M223,76a76.014,76.014,0,0,1-13,1V90h63l3,4h1v20c-1.139,1.139-.4,0-1,2l-10,1V222h10v1l4,1c0.656,1.195,1.618,1.419,2,2v2l2,1c1.687,3.238,1.02,11.175,1,16l-4,3v1H19c-1.139-1.139,0-.4-2-1-1.2-6.407-.634-13.611,0-20l4-3v-1c1.678-1.158,2.292.02,4-2h9V118a34.216,34.216,0,0,1-8-1l-1-3c-2.5-2.76-1.1-14.2-1-19l4-3V91H91V77a60.674,60.674,0,0,1-12-1l-1-3c-2.515-2.716-.653-16.762,0-20l3-1c1.827-1.591,6.63-1,10-1H221a20.827,20.827,0,0,0,3,3V74C222.861,75.139,223.6,74,223,76ZM87,61v6H214V61H87Zm14,160h28V190l4-3v-1h34c1.139,1.139,0,.4,2,1q0.5,1.5,1,3c1.5,1.685,1,5.82,1,9v22h29V78c-7.6-2.775-21.554-1-31-1H102c-2.744,7.439-1.05,24.409-1,34,0.994,1.405,0,23.14,0,29v81Zm9-137c11.108-.081,24.514-0.741,34,1l1,3c1.948,2.153,1.09,15.559,1,20a20.242,20.242,0,0,0-3,3H112c-1.139-1.139,0-.4-2-1q-0.5-1.5-1-3c-0.75-.8-2.1-18.648-1-21A11.11,11.11,0,0,0,110,84Zm46,0c11.108-.081,24.514-0.741,34,1l1,3c1.948,2.153,1.09,15.559,1,20a20.242,20.242,0,0,0-3,3H158c-1.139-1.139,0-.4-2-1q-0.5-1.5-1-3c-0.75-.8-2.1-18.648-1-21A11.11,11.11,0,0,0,156,84ZM118,94v7h18V94H118Zm46,0v7h18V94H164Zm103,13v-7H211a15.682,15.682,0,0,0-1,6c4.58,1.68,12.819,1,19,1h38ZM34,101v7H90a15.68,15.68,0,0,0,1-6c-4.58-1.68-12.819-1-19-1H34Zm176,16V222h46V117H210ZM44,118V222H91V118H44Zm66,0c11.108-.081,24.514-0.741,34,1q0.5,1.5,1,3c1.948,2.153,1.09,15.559,1,20a20.242,20.242,0,0,0-3,3H112c-1.139-1.139,0-.4-2-1q-0.5-1.5-1-3c-0.75-.8-2.1-18.648-1-21A11.113,11.113,0,0,0,110,118Zm46,0c11.108-.081,24.514-0.741,34,1q0.5,1.5,1,3c1.948,2.153,1.09,15.559,1,20a20.242,20.242,0,0,0-3,3H158c-1.139-1.139,0-.4-2-1q-0.5-1.5-1-3c-0.75-.8-2.1-18.648-1-21A11.113,11.113,0,0,0,156,118ZM52,125H81c1.584,2.731,2.742,2.446,3,7a20.346,20.346,0,0,0-3,3H52c-0.925-1.516-4.517-3.528-3-7A27.115,27.115,0,0,0,52,125Zm165,0h29c1.584,2.731,2.742,2.446,3,7a20.346,20.346,0,0,0-3,3H217c-0.926-1.516-4.517-3.528-3-7A27.1,27.1,0,0,0,217,125Zm-99,3v7h18v-7H118Zm46,0v7h18v-7H164ZM52,141H81c1.584,2.731,2.742,2.446,3,7a20.346,20.346,0,0,0-3,3H52c-0.925-1.516-4.517-3.528-3-7A27.115,27.115,0,0,0,52,141Zm165,0h29c1.584,2.731,2.742,2.446,3,7a20.346,20.346,0,0,0-3,3H217c-0.926-1.516-4.517-3.528-3-7A27.1,27.1,0,0,0,217,141ZM110,152c11.108-.081,24.514-0.741,34,1q0.5,1.5,1,3c1.948,2.153,1.09,15.559,1,20a20.242,20.242,0,0,0-3,3H112c-1.139-1.139,0-.4-2-1q-0.5-1.5-1-3c-0.75-.8-2.1-18.648-1-21A11.113,11.113,0,0,0,110,152Zm46,0c11.108-.081,24.514-0.741,34,1q0.5,1.5,1,3c1.948,2.153,1.09,15.559,1,20a20.242,20.242,0,0,0-3,3H158c-1.139-1.139,0-.4-2-1q-0.5-1.5-1-3c-0.75-.8-2.1-18.648-1-21A11.113,11.113,0,0,0,156,152ZM53,157H82c1.584,2.731,2.742,2.446,3,7a20.346,20.346,0,0,0-3,3H53c-0.925-1.516-4.517-3.528-3-7A27.115,27.115,0,0,0,53,157Zm164,0h29c1.584,2.731,2.742,2.446,3,7a20.346,20.346,0,0,0-3,3H217c-0.926-1.516-4.517-3.528-3-7A27.1,27.1,0,0,0,217,157Zm-99,5v7h18v-7H118Zm46,0v7h18v-7H164ZM52,173H81c1.584,2.731,2.742,2.446,3,7a20.346,20.346,0,0,0-3,3H52c-0.925-1.516-4.517-3.528-3-7A27.115,27.115,0,0,0,52,173Zm165,0h29c1.584,2.731,2.742,2.446,3,7a20.346,20.346,0,0,0-3,3H217c-0.926-1.516-4.517-3.528-3-7A27.1,27.1,0,0,0,217,173ZM52,189H81c1.584,2.731,2.742,2.446,3,7a20.346,20.346,0,0,0-3,3H52c-0.925-1.516-4.517-3.528-3-7A27.115,27.115,0,0,0,52,189Zm165,0h29c1.584,2.731,2.742,2.446,3,7a20.346,20.346,0,0,0-3,3H217c-0.926-1.516-4.517-3.528-3-7A27.1,27.1,0,0,0,217,189Zm-78,7v25h22V196H139Zm-87,9H81c1.584,2.731,2.742,2.446,3,7a20.346,20.346,0,0,0-3,3H52c-0.925-1.516-4.517-3.528-3-7A27.115,27.115,0,0,0,52,205Zm165,0h29c1.584,2.731,2.742,2.446,3,7a20.346,20.346,0,0,0-3,3H217c-0.926-1.516-4.517-3.528-3-7A27.1,27.1,0,0,0,217,205ZM26,239H275v-5c-5.518-2.817-14.606-2-23-2H28C26.357,235.1,26.1,233.8,26,239Z"/>
</svg>
